<svg width="12" height="12" viewBox="0 0 12 12" fill="none" xmlns="http://www.w3.org/2000/svg">
<path d="M7 9.125H5C4.795 9.125 4.625 8.955 4.625 8.75C4.625 8.545 4.795 8.375 5 8.375H7C7.205 8.375 7.375 8.545 7.375 8.75C7.375 8.955 7.205 9.125 7 9.125Z" fill="#DC6803"/>
<path d="M1 9.125C0.795 9.125 0.625 8.955 0.625 8.75V3.75C0.625 1.545 1.295 0.875 3.5 0.875C3.705 0.875 3.875 1.045 3.875 1.25C3.875 1.455 3.705 1.625 3.5 1.625C1.715 1.625 1.375 1.96 1.375 3.75V8.75C1.375 8.955 1.205 9.125 1 9.125Z" fill="#DC6803"/>
<path d="M11 9.125C10.795 9.125 10.625 8.955 10.625 8.75V3.75C10.625 1.96 10.285 1.625 8.5 1.625C8.295 1.625 8.125 1.455 8.125 1.25C8.125 1.045 8.295 0.875 8.5 0.875C10.705 0.875 11.375 1.545 11.375 3.75V8.75C11.375 8.955 11.205 9.125 11 9.125Z" fill="#DC6803"/>
<path d="M3.6 11.3752H2.4C1.19 11.3752 0.625 10.8102 0.625 9.60018V7.95518C0.625 6.74518 1.19 6.18018 2.4 6.18018H3.6C4.81 6.18018 5.375 6.74518 5.375 7.95518V9.60018C5.375 10.8102 4.81 11.3752 3.6 11.3752ZM2.4 6.93018C1.605 6.93018 1.375 7.16018 1.375 7.95518V9.60018C1.375 10.3952 1.605 10.6252 2.4 10.6252H3.6C4.395 10.6252 4.625 10.3952 4.625 9.60018V7.95518C4.625 7.16018 4.395 6.93018 3.6 6.93018H2.4Z" fill="#DC6803"/>
<path d="M9.6 11.3752H8.4C7.19 11.3752 6.625 10.8102 6.625 9.60018V7.95518C6.625 6.74518 7.19 6.18018 8.4 6.18018H9.6C10.81 6.18018 11.375 6.74518 11.375 7.95518V9.60018C11.375 10.8102 10.81 11.3752 9.6 11.3752ZM8.4 6.93018C7.605 6.93018 7.375 7.16018 7.375 7.95518V9.60018C7.375 10.3952 7.605 10.6252 8.4 10.6252H9.6C10.395 10.6252 10.625 10.3952 10.625 9.60018V7.95518C10.625 7.16018 10.395 6.93018 9.6 6.93018H8.4Z" fill="#DC6803"/>
</svg>
